<svg xmlns="http://www.w3.org/2000/svg" viewBox="0 0 267.95 281.62"><defs><style>.cls-1,.cls-3{fill:#f7ece0;}.cls-2{fill:#6f5da8;}.cls-3{font-size:54.96px;font-family:Roboto-Medium, Roboto;font-weight:500;}.cls-4{fill:#cac3ce;}</style></defs><title>imspecialLogo</title><g id="Layer_3" data-name="Layer 3"><path class="cls-1" d="M93.6,46.47V204.71a7.28,7.28,0,0,0,7.28,7.28h53.56a7.26,7.26,0,0,1,6.3,3.64l12.95,22.43a7.29,7.29,0,0,0,12.62,0l12.95-22.43a7.26,7.26,0,0,1,6.3-3.64h53.56a7.28,7.28,0,0,0,7.28-7.28V46.47a7.28,7.28,0,0,0-7.28-7.28H100.88A7.28,7.28,0,0,0,93.6,46.47Z" transform="translate(-46.03 -39.19)"/><circle class="cls-2" cx="134.47" cy="47.94" r="14.55"/><path class="cls-2" d="M176.48,118.16h0v-.07h-.1A220.2,220.2,0,0,1,155.7,102.4,222.18,222.18,0,0,1,137.53,85a.9.9,0,0,0-1.35,0l-4,4.65a.91.91,0,0,0,0,1.2,185.37,185.37,0,0,0,17.89,17.58c3.88,3.34,7.7,6.33,11.38,9a.92.92,0,0,1-.73,1.64c-4.72-1-9.68-2.25-14.84-3.77a208.87,208.87,0,0,1-23.08-8.24.91.91,0,0,0-1.23.59c-.57,2-1.14,3.91-1.72,5.87a.91.91,0,0,0,.5,1.09,175.55,175.55,0,0,0,22.89,8.51c5.85,1.72,11.41,3,16.59,4a.92.92,0,0,1,.18,1.74c-2.64,1.15-5.4,2.28-8.28,3.37a176,176,0,0,1-21.21,6.48.91.91,0,0,0-.64,1.21l2.16,5.72a.92.92,0,0,0,1,.58,146.67,146.67,0,0,0,21.27-6.17c4.3-1.61,8.28-3.34,12-5.11a.9.9,0,0,1,1.3.85q-.25,7.64-.27,15.66c0,12,.4,23.34,1.12,34a.91.91,0,0,0,.92.86h6.1a.91.91,0,0,0,.91-1c-.73-10.6-1.15-21.91-1.13-33.87,0-11.77.46-22.91,1.19-33.35Z" transform="translate(-46.03 -39.19)"/><path class="cls-2" d="M183.52,118.16h0v-.07h.1A220.2,220.2,0,0,0,204.3,102.4,222.18,222.18,0,0,0,222.47,85a.9.9,0,0,1,1.35,0l4,4.65a.91.91,0,0,1,0,1.2,185.37,185.37,0,0,1-17.89,17.58c-3.88,3.34-7.7,6.33-11.38,9a.92.92,0,0,0,.73,1.64c4.72-1,9.68-2.25,14.84-3.77a208.87,208.87,0,0,0,23.08-8.24.91.91,0,0,1,1.23.59c.57,2,1.14,3.91,1.72,5.87a.91.91,0,0,1-.5,1.09,175.55,175.55,0,0,1-22.89,8.51c-5.85,1.72-11.41,3-16.59,4a.92.92,0,0,0-.18,1.74c2.64,1.15,5.4,2.28,8.28,3.37a176,176,0,0,0,21.21,6.48.91.91,0,0,1,.64,1.21l-2.16,5.72a.92.92,0,0,1-1,.58,146.67,146.67,0,0,1-21.27-6.17c-4.3-1.61-8.28-3.34-12-5.11a.9.9,0,0,0-1.3.85q.25,7.64.27,15.66c0,12-.4,23.34-1.12,34a.91.91,0,0,1-.92.86h-6.1a.91.91,0,0,1-.91-1c.72-10.6,1.15-21.91,1.13-33.87,0-11.77-.46-22.91-1.19-33.35Z" transform="translate(-46.03 -39.19)"/><text class="cls-3" transform="translate(0 266.73)">i.m.<tspan class="cls-4" x="92.56" y="0">special</tspan></text></g></svg>