<svg xmlns="http://www.w3.org/2000/svg" viewBox="0 0 260.83 277.89"><defs><style>.cls-1{fill:#f7ece0;}.cls-2{fill:#6f5da8;}.cls-3{fill:#cac3ce;}</style></defs><title>logo</title><g id="Layer_3" data-name="Layer 3"><path class="cls-1" d="M93.6,46.47V204.71a7.28,7.28,0,0,0,7.28,7.28h53.56a7.26,7.26,0,0,1,6.3,3.64l12.95,22.43a7.29,7.29,0,0,0,12.62,0l12.95-22.43a7.26,7.26,0,0,1,6.3-3.64h53.56a7.28,7.28,0,0,0,7.28-7.28V46.47a7.28,7.28,0,0,0-7.28-7.28H100.88A7.28,7.28,0,0,0,93.6,46.47Z" transform="translate(-49.38 -39.19)"/><circle class="cls-2" cx="131.11" cy="47.94" r="14.55"/><path class="cls-2" d="M176.48,118.16h0v-.07h-.1A220.2,220.2,0,0,1,155.7,102.4,222.18,222.18,0,0,1,137.53,85a.9.9,0,0,0-1.35,0l-4,4.65a.91.91,0,0,0,0,1.2,185.37,185.37,0,0,0,17.89,17.58c3.88,3.34,7.7,6.33,11.38,9a.92.92,0,0,1-.73,1.64c-4.72-1-9.68-2.25-14.84-3.77a208.87,208.87,0,0,1-23.08-8.24.91.91,0,0,0-1.23.59c-.57,2-1.14,3.91-1.72,5.87a.91.91,0,0,0,.5,1.09,175.55,175.55,0,0,0,22.89,8.51c5.85,1.72,11.41,3,16.59,4a.92.92,0,0,1,.18,1.74c-2.64,1.15-5.4,2.28-8.28,3.37a176,176,0,0,1-21.21,6.48.91.91,0,0,0-.64,1.21l2.16,5.72a.92.92,0,0,0,1,.58,146.67,146.67,0,0,0,21.27-6.17c4.3-1.61,8.28-3.34,12-5.11a.9.9,0,0,1,1.3.85q-.25,7.64-.27,15.66c0,12,.4,23.34,1.12,34a.91.91,0,0,0,.92.86h6.1a.91.91,0,0,0,.91-1c-.73-10.6-1.15-21.91-1.13-33.87,0-11.77.46-22.91,1.19-33.35Z" transform="translate(-49.38 -39.19)"/><path class="cls-2" d="M183.52,118.16h0v-.07h.1A220.2,220.2,0,0,0,204.3,102.4,222.18,222.18,0,0,0,222.47,85a.9.9,0,0,1,1.35,0l4,4.65a.91.91,0,0,1,0,1.2,185.37,185.37,0,0,1-17.89,17.58c-3.88,3.34-7.7,6.33-11.38,9a.92.92,0,0,0,.73,1.64c4.72-1,9.68-2.25,14.84-3.77a208.87,208.87,0,0,0,23.08-8.24.91.91,0,0,1,1.23.59c.57,2,1.14,3.91,1.72,5.87a.91.91,0,0,1-.5,1.09,175.55,175.55,0,0,1-22.89,8.51c-5.85,1.72-11.41,3-16.59,4a.92.92,0,0,0-.18,1.74c2.64,1.15,5.4,2.28,8.28,3.37a176,176,0,0,0,21.21,6.48.91.91,0,0,1,.64,1.21l-2.16,5.72a.92.92,0,0,1-1,.58,146.67,146.67,0,0,1-21.27-6.17c-4.3-1.61-8.28-3.34-12-5.11a.9.9,0,0,0-1.3.85q.25,7.64.27,15.66c0,12-.4,23.34-1.12,34a.91.91,0,0,1-.92.86h-6.1a.91.91,0,0,1-.91-1c.72-10.6,1.15-21.91,1.13-33.87,0-11.77-.46-22.91-1.19-33.35Z" transform="translate(-49.38 -39.19)"/><path class="cls-1" d="M49.38,269.34a3.49,3.49,0,0,1,.95-2.5,3.63,3.63,0,0,1,2.73-1,3.67,3.67,0,0,1,2.74,1,3.46,3.46,0,0,1,1,2.5,3.36,3.36,0,0,1-1,2.45,3.66,3.66,0,0,1-2.74,1,3.62,3.62,0,0,1-2.73-1A3.39,3.39,0,0,1,49.38,269.34Zm6.93,36.58H49.78v-29h6.53Z" transform="translate(-49.38 -39.19)"/><path class="cls-1" d="M67.47,299.05a3.72,3.72,0,0,1,2.82,1,3.59,3.59,0,0,1,1,2.59,3.48,3.48,0,0,1-1,2.54,4.41,4.41,0,0,1-5.58,0,3.4,3.4,0,0,1-1-2.55,3.59,3.59,0,0,1,1-2.59A3.68,3.68,0,0,1,67.47,299.05Z" transform="translate(-49.38 -39.19)"/><path class="cls-1" d="M84.89,276.88l.19,3a10.45,10.45,0,0,1,8.37-3.57q5.82,0,8,4.46a10.3,10.3,0,0,1,8.91-4.46c3.2,0,5.59.89,7.15,2.66s2.37,4.38,2.4,7.84v19.08h-6.52V287a5.75,5.75,0,0,0-1.21-4,5.25,5.25,0,0,0-4-1.29,5.41,5.41,0,0,0-3.64,1.2,6.24,6.24,0,0,0-2,3.12l0,19.92H96.05V286.81q-.14-5.13-5.23-5.13a5.75,5.75,0,0,0-5.56,3.2v21H78.74v-29Z" transform="translate(-49.38 -39.19)"/><path class="cls-1" d="M130.65,299.05a3.71,3.71,0,0,1,2.81,1,3.6,3.6,0,0,1,1,2.59,3.48,3.48,0,0,1-1,2.54,4.41,4.41,0,0,1-5.58,0,3.4,3.4,0,0,1-1-2.55,3.59,3.59,0,0,1,1-2.59A3.71,3.71,0,0,1,130.65,299.05Z" transform="translate(-49.38 -39.19)"/><path class="cls-3" d="M158.21,298a3,3,0,0,0-1.44-2.66,15.08,15.08,0,0,0-4.76-1.61,25.14,25.14,0,0,1-5.56-1.77q-4.87-2.37-4.88-6.85a7.69,7.69,0,0,1,3.17-6.27,12.46,12.46,0,0,1,8-2.53,13,13,0,0,1,8.41,2.58,8.17,8.17,0,0,1,3.21,6.68h-6.52a4,4,0,0,0-1.4-3.13,5.34,5.34,0,0,0-3.7-1.24,5.81,5.81,0,0,0-3.51,1,3.14,3.14,0,0,0-1.35,2.66,2.63,2.63,0,0,0,1.26,2.33,17,17,0,0,0,5.1,1.68,23.75,23.75,0,0,1,6,2,8.59,8.59,0,0,1,3.25,2.81,7.11,7.11,0,0,1,1.06,4,7.56,7.56,0,0,1-3.25,6.35,13.89,13.89,0,0,1-8.5,2.42,15.14,15.14,0,0,1-6.36-1.28,10.46,10.46,0,0,1-4.35-3.55,8.36,8.36,0,0,1-1.56-4.85h6.34a4.57,4.57,0,0,0,1.74,3.55,6.8,6.8,0,0,0,4.27,1.25,6.63,6.63,0,0,0,3.92-1A3,3,0,0,0,158.21,298Z" transform="translate(-49.38 -39.19)"/><path class="cls-3" d="M195.73,291.69q0,6.74-3.06,10.75a10.63,10.63,0,0,1-15.86.87v13.77h-6.53v-40.2h6l.26,2.95a9.58,9.58,0,0,1,7.81-3.49,9.91,9.91,0,0,1,8.34,4q3,4,3,11Zm-6.5-.56a12.15,12.15,0,0,0-1.73-6.9,5.62,5.62,0,0,0-4.95-2.55,6,6,0,0,0-5.74,3.3v12.89a6.06,6.06,0,0,0,5.79,3.38,5.62,5.62,0,0,0,4.87-2.51Q189.22,296.24,189.23,291.13Z" transform="translate(-49.38 -39.19)"/><path class="cls-3" d="M214,306.45a13.51,13.51,0,0,1-10.05-3.9q-3.85-3.9-3.85-10.4v-.81a17.38,17.38,0,0,1,1.68-7.76,12.61,12.61,0,0,1,4.71-5.33,12.44,12.44,0,0,1,6.76-1.91q5.92,0,9.16,3.79t3.24,10.7v2.63h-19a8.7,8.7,0,0,0,2.41,5.69,7.19,7.19,0,0,0,5.3,2.1,8.84,8.84,0,0,0,7.3-3.63l3.51,3.36a11.74,11.74,0,0,1-4.66,4A14.63,14.63,0,0,1,214,306.45Zm-.78-24.87a5.48,5.48,0,0,0-4.33,1.87,9.75,9.75,0,0,0-2.11,5.24h12.43v-.49a8,8,0,0,0-1.75-4.95A5.43,5.43,0,0,0,213.25,281.58Z" transform="translate(-49.38 -39.19)"/><path class="cls-3" d="M242.67,301.25a6,6,0,0,0,4.05-1.42,4.91,4.91,0,0,0,1.72-3.52h6.14a9.54,9.54,0,0,1-1.69,5.06,11.17,11.17,0,0,1-4.29,3.71,12.72,12.72,0,0,1-5.85,1.37,12.38,12.38,0,0,1-9.67-3.94q-3.57-3.94-3.57-10.9v-.67q0-6.63,3.55-10.61a12.25,12.25,0,0,1,9.66-4,11.94,11.94,0,0,1,8.44,3,10.84,10.84,0,0,1,3.42,7.93h-6.14a6,6,0,0,0-1.71-4.1,5.45,5.45,0,0,0-4.06-1.61,5.74,5.74,0,0,0-4.89,2.29c-1.14,1.53-1.73,3.85-1.74,7v1.05c0,3.15.56,5.5,1.7,7.05A5.76,5.76,0,0,0,242.67,301.25Z" transform="translate(-49.38 -39.19)"/><path class="cls-3" d="M259.52,269.34a3.49,3.49,0,0,1,1-2.5,4.26,4.26,0,0,1,5.46,0,3.42,3.42,0,0,1,1,2.5,3.32,3.32,0,0,1-1,2.45,4.29,4.29,0,0,1-5.46,0A3.39,3.39,0,0,1,259.52,269.34Zm6.92,36.58h-6.52v-29h6.52Z" transform="translate(-49.38 -39.19)"/><path class="cls-3" d="M290.89,305.92a10.62,10.62,0,0,1-.75-2.71,11,11,0,0,1-14.76.75,8,8,0,0,1-2.76-6.17,8.25,8.25,0,0,1,3.44-7.13q3.45-2.49,9.87-2.48h4v-1.91a5.11,5.11,0,0,0-1.27-3.61,5,5,0,0,0-3.83-1.35,5.73,5.73,0,0,0-3.65,1.11,3.45,3.45,0,0,0-1.43,2.83h-6.52a7.24,7.24,0,0,1,1.59-4.47,10.61,10.61,0,0,1,4.3-3.26,15.3,15.3,0,0,1,6.08-1.18,12.17,12.17,0,0,1,8.13,2.57,9.12,9.12,0,0,1,3.12,7.2v13.1a14.74,14.74,0,0,0,1.1,6.25v.46Zm-7.16-4.7a7.36,7.36,0,0,0,3.63-.94,6.31,6.31,0,0,0,2.57-2.52v-5.48h-3.52a9.65,9.65,0,0,0-5.45,1.26,4.12,4.12,0,0,0-1.82,3.57,3.83,3.83,0,0,0,1.24,3A4.87,4.87,0,0,0,283.73,301.22Z" transform="translate(-49.38 -39.19)"/><path class="cls-3" d="M310.21,305.92h-6.52V264.69h6.52Z" transform="translate(-49.38 -39.19)"/></g></svg>